<svg viewBox="0 0 134 135" fill="none" xmlns="http://www.w3.org/2000/svg">
<path d="M68.1988 88.1265C80.2107 88.1265 89.9483 78.3162 89.9483 66.2146C89.9483 54.113 80.2107 44.3027 68.1988 44.3027C56.1868 44.3027 46.4492 54.113 46.4492 66.2146C46.4492 78.3162 56.1868 88.1265 68.1988 88.1265Z" fill="#FFB6B6"/>
<path d="M55.7136 91.3666L54.731 81.3599L74.3527 77.6636L85.9392 106.085L65.7888 129.43L51.4316 101.009L55.7136 91.3666Z" fill="#FFB6B6"/>
<path d="M54.4153 86.3687L58.7051 87.3452C58.7051 87.3452 55.3329 76.572 56.4775 75.5434C57.6221 74.5149 60.427 76.1355 60.427 76.1355L63.3745 79.4648L66.9647 75.7822C66.9647 75.7822 70.8626 70.8993 72.3887 69.528C73.9148 68.1566 71.4635 63.0663 71.4635 63.0663C71.4635 63.0663 94.1054 56.9154 85.6803 45.8514C85.6803 45.8514 80.7407 37.1767 79.1321 40.0025C77.5235 42.8283 75.6054 38.3404 75.6054 38.3404L69.7483 39.4625C69.7483 39.4625 58.1884 32.5957 47.2168 47.2858C36.2451 61.9759 54.4153 86.3687 54.4153 86.3687Z" fill="#2F2E41"/>
<path d="M109.105 120.015C97.2183 129.724 82.5136 135 67.0003 135C52.8346 135 39.3414 130.6 28.0547 122.444C28.0748 122.231 28.095 122.02 28.1126 121.809C28.4124 118.511 28.6794 115.303 28.8557 112.644C29.5383 102.318 53.4492 95.4362 53.4492 95.4362C53.4492 95.4362 53.5575 95.5453 53.7741 95.7357C55.094 96.903 60.4515 101.136 69.8466 102.318C78.2241 103.374 80.9822 98.3671 81.8159 95.9691C82.0678 95.2383 82.1433 94.7485 82.1433 94.7485L106.737 106.449C108.341 108.759 108.969 113.732 109.092 119.323C109.097 119.554 109.102 119.782 109.105 120.015Z" fill="#081D87"/>
</svg>
